<svg xmlns="http://www.w3.org/2000/svg" width="24" height="24" viewBox="0 0 24 24"><g stroke="#000" stroke-linejoin="round" stroke-miterlimit="10" fill="none"><path d="M8.074 10.213c-.656-1.311-2.008-2.213-3.574-2.213-2.209 0-4 1.791-4 4s1.791 4 4 4c1.566 0 2.918-.902 3.574-2.213M19.5 8.5c2.209 0 4-1.791 4-4s-1.791-4-4-4-4 1.791-4 4c0 .643.156 1.248.424 1.787M15.924 17.713c-1.326 2.648.6 5.787 3.576 5.787 2.209 0 4-1.791 4-4s-1.791-4-4-4M19.5 8.5c-1.566 0-2.918-.902-3.576-2.213l-7.85 3.926c.27.537.426 1.143.426 1.787 0 .643-.156 1.248-.426 1.787l7.85 3.926c.658-1.311 2.01-2.213 3.576-2.213"/></g></svg>