<svg id="Layer_1" data-name="Layer 1" xmlns="http://www.w3.org/2000/svg" width="64" height="64" viewBox="0 0 64 64"><defs><style>.cls-1{fill:#666;}</style></defs><title>world_times</title><path id="world_times" class="cls-1" d="M31,56A23,23,0,1,1,54,33,23,23,0,0,1,31,56Zm0-44A21,21,0,1,0,52,33,21,21,0,0,0,31,12Zm-1-1h2V55H30V11ZM9,32H53v2H9V32ZM31,56c-6.73,0-12-10.1-12-23s5.27-23,12-23S43,20.1,43,33,37.73,56,31,56Zm0-44c-5.42,0-10,9.62-10,21s4.58,21,10,21,10-9.62,10-21S36.42,12,31,12Zm0,11c-6.41,0-12.56-1.38-16.88-3.79l1-1.75C19.12,19.71,24.92,21,31,21s11.88-1.29,15.91-3.54l1,1.75C43.56,21.62,37.41,23,31,23ZM46.91,48.54C42.88,46.29,37.08,45,31,45s-11.88,1.29-15.91,3.54l-1-1.75C18.44,44.38,24.59,43,31,43s12.56,1.38,16.88,3.79Z"/></svg>