<svg id="Layer_1" data-name="Layer 1" xmlns="http://www.w3.org/2000/svg" width="64" height="64" viewBox="0 0 64 64"><defs><style>.cls-1{fill:#666;}</style></defs><title>information</title><path class="cls-1" d="M31,60A27,27,0,1,0,4,33,27,27,0,0,0,31,60ZM31,8A25,25,0,1,1,6,33,25,25,0,0,1,31,8Z"/><path class="cls-1" d="M31,24a3,3,0,1,0-3-3A3,3,0,0,0,31,24Zm0-4a1,1,0,1,1-1,1A1,1,0,0,1,31,20Z"/><path class="cls-1" d="M31,50a3,3,0,0,0,3-3V29a3,3,0,0,0-6,0V47A3,3,0,0,0,31,50ZM30,29a1,1,0,0,1,2,0V47a1,1,0,0,1-2,0V29Z"/></svg>