<?xml version="1.0" encoding="UTF-8"?>
<svg width="160px" height="160px" viewBox="0 0 160 160" version="1.1" xmlns="http://www.w3.org/2000/svg" xmlns:xlink="http://www.w3.org/1999/xlink">
    <!-- Generator: Sketch 48.2 (47327) - http://www.bohemiancoding.com/sketch -->
    <title>Group</title>
    <desc>Created with Sketch.</desc>
    <defs></defs>
    <g id="Page-1" stroke="none" stroke-width="1" fill="none" fill-rule="evenodd">
        <g id="Group" fill="#15CECE">
            <path d="M135.256634,18.546198 C121.764608,6.58476748 104.468979,0 86.5573571,0 C83.7764209,0 80.9655821,0.155498596 78.1906264,0.472476504 C37.9298461,5.05370438 8.8944795,41.5360674 13.4755487,81.8042231 C15.5268629,99.8300989 24.144775,116.39668 37.7444504,128.453802 C51.2364765,140.415233 68.5321058,147 86.4437275,147 C89.2186832,147 92.029522,146.844501 94.8044777,146.527523 C135.071238,141.946296 164.100625,105.457952 159.525536,65.1957769 C157.474222,47.1699011 148.85631,30.6033199 135.256634,18.546198 Z" id="Fill-2-Copy-8"></path>
            <path d="M24.9503335,133.784938 C22.1968588,131.34383 18.6671385,130 15.0117055,130 C14.4441675,130 13.870527,130.031734 13.3042095,130.096424 C5.0877237,131.031368 -0.837861326,138.476748 0.0970507498,146.694739 C0.515686314,150.37349 2.27444389,153.754425 5.04988783,156.215062 C7.80336256,158.65617 11.3330828,160 14.9885158,160 C15.5548333,160 16.1284739,159.968266 16.6947914,159.903576 C24.9124977,158.968632 30.8368622,151.522031 29.9031706,143.305261 C29.484535,139.62651 27.7257775,136.245575 24.9503335,133.784938 Z" id="Fill-2-Copy-9"></path>
        </g>
    </g>
</svg>